# xmcd CD database file
#
# Track frame offsets:
#	150
#	21182
#	39140
#
# Disc length: 795 seconds
#
# Revision: 5
# Processed by: cddbd v1.5.2PL0 Copyright (c) Steve Scherf et al.
# Submitted via: CDex 1.51
#
DISCID=16031903
DTITLE=Rod Steward - When we were the new boys
DYEAR=1993
DGENRE=Rock
TTITLE0=When we were the new boys
TTITLE1=Hot legs
TTITLE2=Da ya think I´m sexy
EXTD=YEAR: 1993
EXTT0=
EXTT1=
EXTT2=
PLAYORDER=
